<svg
    className="h-4 w-4 flex-no-shrink fill-current"
    xmlns="http://www.w3.org/2000/svg"
    viewBox="0 0 23.111 26"
    >
        <path
            id="delete_FILL0_wght400_GRAD0_opsz48"
            d="M163.647-814a2.086,2.086,0,0,1-1.53-.636,2.086,2.086,0,0,1-.636-1.53V-836.75H160v-2.167h6.789V-840h9.533v1.083h6.789v2.167h-1.481v20.583a2.079,2.079,0,0,1-.65,1.517,2.079,2.079,0,0,1-1.517.65Zm15.817-22.75H163.647v20.583h15.817Zm-11.989,17.478h2.167v-14.408h-2.167Zm5.994,0h2.167v-14.408h-2.167Zm-9.822-17.478v0Z"
            transform="translate(-160 840)"
        />
</svg>