<svg
    xmlns="http://www.w3.org/2000/svg"
    viewBox="0 0 26 21.458"
    >
        <path
            id="edit_note_FILL0_wght400_GRAD0_opsz48"
            d="M65.695-295.461V-298l7.725-7.725,2.539,2.539-7.725,7.725Zm-12.875-7.51v-2.146H63.549v2.146ZM77.5-304.724l-2.539-2.539,1.037-1.037a1.016,1.016,0,0,1,.751-.286,1.016,1.016,0,0,1,.751.286l1.037,1.037a1.016,1.016,0,0,1,.286.751,1.016,1.016,0,0,1-.286.751ZM52.82-308.872v-2.146H69.629v2.146Zm0-5.9v-2.146H69.629v2.146Z"
            transform="translate(-52.82 316.919)"
        />
</svg>