<svg
    xmlns="http://www.w3.org/2000/svg"
    viewBox="0 0 32.533 22.182"
    >
        <path
        id="visibility_FILL0_wght400_GRAD0_opsz48"
        d="M56.271-782.624a6.05,6.05,0,0,0,4.45-1.834,6.072,6.072,0,0,0,1.83-4.455,6.051,6.051,0,0,0-1.834-4.451,6.072,6.072,0,0,0-4.455-1.83,6.05,6.05,0,0,0-4.45,1.834,6.072,6.072,0,0,0-1.83,4.455,6.051,6.051,0,0,0,1.834,4.45A6.072,6.072,0,0,0,56.271-782.624Zm-.013-2.144a3.973,3.973,0,0,1-2.93-1.21,4.016,4.016,0,0,1-1.2-2.939,3.973,3.973,0,0,1,1.21-2.93,4.016,4.016,0,0,1,2.939-1.2,3.973,3.973,0,0,1,2.93,1.21,4.016,4.016,0,0,1,1.2,2.939,3.973,3.973,0,0,1-1.21,2.93A4.016,4.016,0,0,1,56.258-784.769Zm.009,6.95a16.569,16.569,0,0,1-9.76-3.068A18.693,18.693,0,0,1,40-788.909a18.694,18.694,0,0,1,6.507-8.023A16.57,16.57,0,0,1,56.267-800a16.57,16.57,0,0,1,9.76,3.068,18.694,18.694,0,0,1,6.507,8.023,18.693,18.693,0,0,1-6.507,8.022A16.569,16.569,0,0,1,56.267-777.818ZM56.267-788.909Zm-.006,8.873a14.877,14.877,0,0,0,8.232-2.422,15.713,15.713,0,0,0,5.712-6.451A15.728,15.728,0,0,0,64.5-795.36a14.846,14.846,0,0,0-8.226-2.422,14.876,14.876,0,0,0-8.232,2.422,15.978,15.978,0,0,0-5.749,6.451,15.992,15.992,0,0,0,5.743,6.451A14.847,14.847,0,0,0,56.26-780.036Z"
        transform="translate(-40 800)"
        />
</svg>